<svg width="370" height="370" xmlns="http://www.w3.org/2000/svg" xlink="http://www.w3.org/1999/xlink"><rect width="100%" height="100%" fill="#ffffff"/><g fill="#000000"><rect width="10" y="360" x="0" height="10"/><rect width="10" y="350" x="0" height="10"/><rect width="10" y="340" x="0" height="10"/><rect width="10" y="330" x="0" height="10"/><rect width="10" y="320" x="0" height="10"/><rect width="10" y="310" x="0" height="10"/><rect width="10" y="300" x="0" height="10"/><rect width="10" y="280" x="0" height="10"/><rect width="10" y="270" x="0" height="10"/><rect width="10" y="260" x="0" height="10"/><rect width="10" y="230" x="0" height="10"/><rect width="10" y="210" x="0" height="10"/><rect width="10" y="200" x="0" height="10"/><rect width="10" y="190" x="0" height="10"/><rect width="10" y="180" x="0" height="10"/><rect width="10" y="160" x="0" height="10"/><rect width="10" y="150" x="0" height="10"/><rect width="10" y="120" x="0" height="10"/><rect width="10" y="110" x="0" height="10"/><rect width="10" y="100" x="0" height="10"/><rect width="10" y="90" x="0" height="10"/><rect width="10" y="60" x="0" height="10"/><rect width="10" y="50" x="0" height="10"/><rect width="10" y="40" x="0" height="10"/><rect width="10" y="30" x="0" height="10"/><rect width="10" y="20" x="0" height="10"/><rect width="10" y="10" x="0" height="10"/><rect width="10" y="0" x="0" height="10"/><rect width="10" y="360" x="10" height="10"/><rect width="10" y="300" x="10" height="10"/><rect width="10" y="260" x="10" height="10"/><rect width="10" y="250" x="10" height="10"/><rect width="10" y="240" x="10" height="10"/><rect width="10" y="220" x="10" height="10"/><rect width="10" y="200" x="10" height="10"/><rect width="10" y="190" x="10" height="10"/><rect width="10" y="170" x="10" height="10"/><rect width="10" y="150" x="10" height="10"/><rect width="10" y="130" x="10" height="10"/><rect width="10" y="120" x="10" height="10"/><rect width="10" y="80" x="10" height="10"/><rect width="10" y="60" x="10" height="10"/><rect width="10" y="0" x="10" height="10"/><rect width="10" y="360" x="20" height="10"/><rect width="10" y="340" x="20" height="10"/><rect width="10" y="330" x="20" height="10"/><rect width="10" y="320" x="20" height="10"/><rect width="10" y="300" x="20" height="10"/><rect width="10" y="270" x="20" height="10"/><rect width="10" y="260" x="20" height="10"/><rect width="10" y="210" x="20" height="10"/><rect width="10" y="200" x="20" height="10"/><rect width="10" y="190" x="20" height="10"/><rect width="10" y="160" x="20" height="10"/><rect width="10" y="120" x="20" height="10"/><rect width="10" y="110" x="20" height="10"/><rect width="10" y="100" x="20" height="10"/><rect width="10" y="60" x="20" height="10"/><rect width="10" y="40" x="20" height="10"/><rect width="10" y="30" x="20" height="10"/><rect width="10" y="20" x="20" height="10"/><rect width="10" y="0" x="20" height="10"/><rect width="10" y="360" x="30" height="10"/><rect width="10" y="340" x="30" height="10"/><rect width="10" y="330" x="30" height="10"/><rect width="10" y="320" x="30" height="10"/><rect width="10" y="300" x="30" height="10"/><rect width="10" y="280" x="30" height="10"/><rect width="10" y="260" x="30" height="10"/><rect width="10" y="250" x="30" height="10"/><rect width="10" y="240" x="30" height="10"/><rect width="10" y="200" x="30" height="10"/><rect width="10" y="190" x="30" height="10"/><rect width="10" y="180" x="30" height="10"/><rect width="10" y="170" x="30" height="10"/><rect width="10" y="150" x="30" height="10"/><rect width="10" y="130" x="30" height="10"/><rect width="10" y="120" x="30" height="10"/><rect width="10" y="110" x="30" height="10"/><rect width="10" y="100" x="30" height="10"/><rect width="10" y="60" x="30" height="10"/><rect width="10" y="40" x="30" height="10"/><rect width="10" y="30" x="30" height="10"/><rect width="10" y="20" x="30" height="10"/><rect width="10" y="0" x="30" height="10"/><rect width="10" y="360" x="40" height="10"/><rect width="10" y="340" x="40" height="10"/><rect width="10" y="330" x="40" height="10"/><rect width="10" y="320" x="40" height="10"/><rect width="10" y="300" x="40" height="10"/><rect width="10" y="270" x="40" height="10"/><rect width="10" y="240" x="40" height="10"/><rect width="10" y="210" x="40" height="10"/><rect width="10" y="190" x="40" height="10"/><rect width="10" y="160" x="40" height="10"/><rect width="10" y="150" x="40" height="10"/><rect width="10" y="140" x="40" height="10"/><rect width="10" y="130" x="40" height="10"/><rect width="10" y="120" x="40" height="10"/><rect width="10" y="110" x="40" height="10"/><rect width="10" y="100" x="40" height="10"/><rect width="10" y="90" x="40" height="10"/><rect width="10" y="60" x="40" height="10"/><rect width="10" y="40" x="40" height="10"/><rect width="10" y="30" x="40" height="10"/><rect width="10" y="20" x="40" height="10"/><rect width="10" y="0" x="40" height="10"/><rect width="10" y="360" x="50" height="10"/><rect width="10" y="300" x="50" height="10"/><rect width="10" y="280" x="50" height="10"/><rect width="10" y="190" x="50" height="10"/><rect width="10" y="170" x="50" height="10"/><rect width="10" y="150" x="50" height="10"/><rect width="10" y="140" x="50" height="10"/><rect width="10" y="110" x="50" height="10"/><rect width="10" y="100" x="50" height="10"/><rect width="10" y="80" x="50" height="10"/><rect width="10" y="60" x="50" height="10"/><rect width="10" y="0" x="50" height="10"/><rect width="10" y="360" x="60" height="10"/><rect width="10" y="350" x="60" height="10"/><rect width="10" y="340" x="60" height="10"/><rect width="10" y="330" x="60" height="10"/><rect width="10" y="320" x="60" height="10"/><rect width="10" y="310" x="60" height="10"/><rect width="10" y="300" x="60" height="10"/><rect width="10" y="280" x="60" height="10"/><rect width="10" y="260" x="60" height="10"/><rect width="10" y="240" x="60" height="10"/><rect width="10" y="220" x="60" height="10"/><rect width="10" y="200" x="60" height="10"/><rect width="10" y="180" x="60" height="10"/><rect width="10" y="160" x="60" height="10"/><rect width="10" y="140" x="60" height="10"/><rect width="10" y="120" x="60" height="10"/><rect width="10" y="100" x="60" height="10"/><rect width="10" y="60" x="60" height="10"/><rect width="10" y="50" x="60" height="10"/><rect width="10" y="40" x="60" height="10"/><rect width="10" y="30" x="60" height="10"/><rect width="10" y="20" x="60" height="10"/><rect width="10" y="10" x="60" height="10"/><rect width="10" y="0" x="60" height="10"/><rect width="10" y="250" x="70" height="10"/><rect width="10" y="240" x="70" height="10"/><rect width="10" y="220" x="70" height="10"/><rect width="10" y="190" x="70" height="10"/><rect width="10" y="180" x="70" height="10"/><rect width="10" y="170" x="70" height="10"/><rect width="10" y="160" x="70" height="10"/><rect width="10" y="150" x="70" height="10"/><rect width="10" y="140" x="70" height="10"/><rect width="10" y="100" x="70" height="10"/><rect width="10" y="80" x="70" height="10"/><rect width="10" y="350" x="80" height="10"/><rect width="10" y="310" x="80" height="10"/><rect width="10" y="300" x="80" height="10"/><rect width="10" y="280" x="80" height="10"/><rect width="10" y="270" x="80" height="10"/><rect width="10" y="250" x="80" height="10"/><rect width="10" y="240" x="80" height="10"/><rect width="10" y="230" x="80" height="10"/><rect width="10" y="210" x="80" height="10"/><rect width="10" y="180" x="80" height="10"/><rect width="10" y="150" x="80" height="10"/><rect width="10" y="130" x="80" height="10"/><rect width="10" y="110" x="80" height="10"/><rect width="10" y="100" x="80" height="10"/><rect width="10" y="70" x="80" height="10"/><rect width="10" y="50" x="80" height="10"/><rect width="10" y="40" x="80" height="10"/><rect width="10" y="330" x="90" height="10"/><rect width="10" y="300" x="90" height="10"/><rect width="10" y="260" x="90" height="10"/><rect width="10" y="240" x="90" height="10"/><rect width="10" y="230" x="90" height="10"/><rect width="10" y="200" x="90" height="10"/><rect width="10" y="160" x="90" height="10"/><rect width="10" y="120" x="90" height="10"/><rect width="10" y="100" x="90" height="10"/><rect width="10" y="70" x="90" height="10"/><rect width="10" y="30" x="90" height="10"/><rect width="10" y="20" x="90" height="10"/><rect width="10" y="10" x="90" height="10"/><rect width="10" y="0" x="90" height="10"/><rect width="10" y="340" x="100" height="10"/><rect width="10" y="320" x="100" height="10"/><rect width="10" y="290" x="100" height="10"/><rect width="10" y="270" x="100" height="10"/><rect width="10" y="260" x="100" height="10"/><rect width="10" y="250" x="100" height="10"/><rect width="10" y="240" x="100" height="10"/><rect width="10" y="220" x="100" height="10"/><rect width="10" y="210" x="100" height="10"/><rect width="10" y="200" x="100" height="10"/><rect width="10" y="190" x="100" height="10"/><rect width="10" y="150" x="100" height="10"/><rect width="10" y="130" x="100" height="10"/><rect width="10" y="90" x="100" height="10"/><rect width="10" y="80" x="100" height="10"/><rect width="10" y="70" x="100" height="10"/><rect width="10" y="60" x="100" height="10"/><rect width="10" y="40" x="100" height="10"/><rect width="10" y="30" x="100" height="10"/><rect width="10" y="20" x="100" height="10"/><rect width="10" y="10" x="100" height="10"/><rect width="10" y="360" x="110" height="10"/><rect width="10" y="350" x="110" height="10"/><rect width="10" y="340" x="110" height="10"/><rect width="10" y="320" x="110" height="10"/><rect width="10" y="310" x="110" height="10"/><rect width="10" y="290" x="110" height="10"/><rect width="10" y="280" x="110" height="10"/><rect width="10" y="270" x="110" height="10"/><rect width="10" y="260" x="110" height="10"/><rect width="10" y="230" x="110" height="10"/><rect width="10" y="190" x="110" height="10"/><rect width="10" y="160" x="110" height="10"/><rect width="10" y="140" x="110" height="10"/><rect width="10" y="70" x="110" height="10"/><rect width="10" y="50" x="110" height="10"/><rect width="10" y="40" x="110" height="10"/><rect width="10" y="30" x="110" height="10"/><rect width="10" y="360" x="120" height="10"/><rect width="10" y="350" x="120" height="10"/><rect width="10" y="340" x="120" height="10"/><rect width="10" y="330" x="120" height="10"/><rect width="10" y="310" x="120" height="10"/><rect width="10" y="300" x="120" height="10"/><rect width="10" y="290" x="120" height="10"/><rect width="10" y="240" x="120" height="10"/><rect width="10" y="220" x="120" height="10"/><rect width="10" y="210" x="120" height="10"/><rect width="10" y="200" x="120" height="10"/><rect width="10" y="180" x="120" height="10"/><rect width="10" y="160" x="120" height="10"/><rect width="10" y="60" x="120" height="10"/><rect width="10" y="50" x="120" height="10"/><rect width="10" y="30" x="120" height="10"/><rect width="10" y="20" x="120" height="10"/><rect width="10" y="0" x="120" height="10"/><rect width="10" y="340" x="130" height="10"/><rect width="10" y="320" x="130" height="10"/><rect width="10" y="290" x="130" height="10"/><rect width="10" y="280" x="130" height="10"/><rect width="10" y="270" x="130" height="10"/><rect width="10" y="260" x="130" height="10"/><rect width="10" y="240" x="130" height="10"/><rect width="10" y="220" x="130" height="10"/><rect width="10" y="170" x="130" height="10"/><rect width="10" y="160" x="130" height="10"/><rect width="10" y="140" x="130" height="10"/><rect width="10" y="120" x="130" height="10"/><rect width="10" y="110" x="130" height="10"/><rect width="10" y="90" x="130" height="10"/><rect width="10" y="50" x="130" height="10"/><rect width="10" y="10" x="130" height="10"/><rect width="10" y="0" x="130" height="10"/><rect width="10" y="340" x="140" height="10"/><rect width="10" y="330" x="140" height="10"/><rect width="10" y="320" x="140" height="10"/><rect width="10" y="310" x="140" height="10"/><rect width="10" y="300" x="140" height="10"/><rect width="10" y="280" x="140" height="10"/><rect width="10" y="270" x="140" height="10"/><rect width="10" y="240" x="140" height="10"/><rect width="10" y="230" x="140" height="10"/><rect width="10" y="190" x="140" height="10"/><rect width="10" y="170" x="140" height="10"/><rect width="10" y="160" x="140" height="10"/><rect width="10" y="150" x="140" height="10"/><rect width="10" y="140" x="140" height="10"/><rect width="10" y="120" x="140" height="10"/><rect width="10" y="110" x="140" height="10"/><rect width="10" y="100" x="140" height="10"/><rect width="10" y="90" x="140" height="10"/><rect width="10" y="60" x="140" height="10"/><rect width="10" y="30" x="140" height="10"/><rect width="10" y="20" x="140" height="10"/><rect width="10" y="360" x="150" height="10"/><rect width="10" y="340" x="150" height="10"/><rect width="10" y="310" x="150" height="10"/><rect width="10" y="300" x="150" height="10"/><rect width="10" y="270" x="150" height="10"/><rect width="10" y="260" x="150" height="10"/><rect width="10" y="240" x="150" height="10"/><rect width="10" y="220" x="150" height="10"/><rect width="10" y="210" x="150" height="10"/><rect width="10" y="190" x="150" height="10"/><rect width="10" y="130" x="150" height="10"/><rect width="10" y="100" x="150" height="10"/><rect width="10" y="90" x="150" height="10"/><rect width="10" y="70" x="150" height="10"/><rect width="10" y="50" x="150" height="10"/><rect width="10" y="40" x="150" height="10"/><rect width="10" y="0" x="150" height="10"/><rect width="10" y="350" x="160" height="10"/><rect width="10" y="340" x="160" height="10"/><rect width="10" y="330" x="160" height="10"/><rect width="10" y="310" x="160" height="10"/><rect width="10" y="300" x="160" height="10"/><rect width="10" y="290" x="160" height="10"/><rect width="10" y="240" x="160" height="10"/><rect width="10" y="180" x="160" height="10"/><rect width="10" y="160" x="160" height="10"/><rect width="10" y="140" x="160" height="10"/><rect width="10" y="120" x="160" height="10"/><rect width="10" y="100" x="160" height="10"/><rect width="10" y="90" x="160" height="10"/><rect width="10" y="80" x="160" height="10"/><rect width="10" y="70" x="160" height="10"/><rect width="10" y="60" x="160" height="10"/><rect width="10" y="40" x="160" height="10"/><rect width="10" y="30" x="160" height="10"/><rect width="10" y="0" x="160" height="10"/><rect width="10" y="340" x="170" height="10"/><rect width="10" y="320" x="170" height="10"/><rect width="10" y="280" x="170" height="10"/><rect width="10" y="270" x="170" height="10"/><rect width="10" y="250" x="170" height="10"/><rect width="10" y="240" x="170" height="10"/><rect width="10" y="230" x="170" height="10"/><rect width="10" y="220" x="170" height="10"/><rect width="10" y="180" x="170" height="10"/><rect width="10" y="170" x="170" height="10"/><rect width="10" y="160" x="170" height="10"/><rect width="10" y="140" x="170" height="10"/><rect width="10" y="120" x="170" height="10"/><rect width="10" y="110" x="170" height="10"/><rect width="10" y="100" x="170" height="10"/><rect width="10" y="70" x="170" height="10"/><rect width="10" y="30" x="170" height="10"/><rect width="10" y="10" x="170" height="10"/><rect width="10" y="0" x="170" height="10"/><rect width="10" y="320" x="180" height="10"/><rect width="10" y="310" x="180" height="10"/><rect width="10" y="300" x="180" height="10"/><rect width="10" y="280" x="180" height="10"/><rect width="10" y="270" x="180" height="10"/><rect width="10" y="260" x="180" height="10"/><rect width="10" y="250" x="180" height="10"/><rect width="10" y="210" x="180" height="10"/><rect width="10" y="190" x="180" height="10"/><rect width="10" y="160" x="180" height="10"/><rect width="10" y="140" x="180" height="10"/><rect width="10" y="90" x="180" height="10"/><rect width="10" y="60" x="180" height="10"/><rect width="10" y="40" x="180" height="10"/><rect width="10" y="30" x="180" height="10"/><rect width="10" y="350" x="190" height="10"/><rect width="10" y="340" x="190" height="10"/><rect width="10" y="320" x="190" height="10"/><rect width="10" y="310" x="190" height="10"/><rect width="10" y="300" x="190" height="10"/><rect width="10" y="290" x="190" height="10"/><rect width="10" y="230" x="190" height="10"/><rect width="10" y="220" x="190" height="10"/><rect width="10" y="210" x="190" height="10"/><rect width="10" y="200" x="190" height="10"/><rect width="10" y="190" x="190" height="10"/><rect width="10" y="160" x="190" height="10"/><rect width="10" y="150" x="190" height="10"/><rect width="10" y="120" x="190" height="10"/><rect width="10" y="100" x="190" height="10"/><rect width="10" y="90" x="190" height="10"/><rect width="10" y="70" x="190" height="10"/><rect width="10" y="50" x="190" height="10"/><rect width="10" y="30" x="190" height="10"/><rect width="10" y="10" x="190" height="10"/><rect width="10" y="360" x="200" height="10"/><rect width="10" y="350" x="200" height="10"/><rect width="10" y="340" x="200" height="10"/><rect width="10" y="300" x="200" height="10"/><rect width="10" y="290" x="200" height="10"/><rect width="10" y="270" x="200" height="10"/><rect width="10" y="240" x="200" height="10"/><rect width="10" y="230" x="200" height="10"/><rect width="10" y="170" x="200" height="10"/><rect width="10" y="140" x="200" height="10"/><rect width="10" y="130" x="200" height="10"/><rect width="10" y="110" x="200" height="10"/><rect width="10" y="100" x="200" height="10"/><rect width="10" y="90" x="200" height="10"/><rect width="10" y="80" x="200" height="10"/><rect width="10" y="70" x="200" height="10"/><rect width="10" y="60" x="200" height="10"/><rect width="10" y="30" x="200" height="10"/><rect width="10" y="10" x="200" height="10"/><rect width="10" y="0" x="200" height="10"/><rect width="10" y="340" x="210" height="10"/><rect width="10" y="320" x="210" height="10"/><rect width="10" y="270" x="210" height="10"/><rect width="10" y="260" x="210" height="10"/><rect width="10" y="250" x="210" height="10"/><rect width="10" y="230" x="210" height="10"/><rect width="10" y="220" x="210" height="10"/><rect width="10" y="190" x="210" height="10"/><rect width="10" y="130" x="210" height="10"/><rect width="10" y="120" x="210" height="10"/><rect width="10" y="100" x="210" height="10"/><rect width="10" y="90" x="210" height="10"/><rect width="10" y="80" x="210" height="10"/><rect width="10" y="40" x="210" height="10"/><rect width="10" y="30" x="210" height="10"/><rect width="10" y="0" x="210" height="10"/><rect width="10" y="340" x="220" height="10"/><rect width="10" y="290" x="220" height="10"/><rect width="10" y="280" x="220" height="10"/><rect width="10" y="270" x="220" height="10"/><rect width="10" y="240" x="220" height="10"/><rect width="10" y="220" x="220" height="10"/><rect width="10" y="210" x="220" height="10"/><rect width="10" y="200" x="220" height="10"/><rect width="10" y="190" x="220" height="10"/><rect width="10" y="170" x="220" height="10"/><rect width="10" y="160" x="220" height="10"/><rect width="10" y="150" x="220" height="10"/><rect width="10" y="120" x="220" height="10"/><rect width="10" y="90" x="220" height="10"/><rect width="10" y="60" x="220" height="10"/><rect width="10" y="50" x="220" height="10"/><rect width="10" y="40" x="220" height="10"/><rect width="10" y="30" x="220" height="10"/><rect width="10" y="0" x="220" height="10"/><rect width="10" y="350" x="230" height="10"/><rect width="10" y="340" x="230" height="10"/><rect width="10" y="310" x="230" height="10"/><rect width="10" y="280" x="230" height="10"/><rect width="10" y="260" x="230" height="10"/><rect width="10" y="230" x="230" height="10"/><rect width="10" y="220" x="230" height="10"/><rect width="10" y="200" x="230" height="10"/><rect width="10" y="180" x="230" height="10"/><rect width="10" y="170" x="230" height="10"/><rect width="10" y="160" x="230" height="10"/><rect width="10" y="130" x="230" height="10"/><rect width="10" y="100" x="230" height="10"/><rect width="10" y="90" x="230" height="10"/><rect width="10" y="70" x="230" height="10"/><rect width="10" y="40" x="230" height="10"/><rect width="10" y="10" x="230" height="10"/><rect width="10" y="360" x="240" height="10"/><rect width="10" y="350" x="240" height="10"/><rect width="10" y="340" x="240" height="10"/><rect width="10" y="320" x="240" height="10"/><rect width="10" y="310" x="240" height="10"/><rect width="10" y="300" x="240" height="10"/><rect width="10" y="270" x="240" height="10"/><rect width="10" y="260" x="240" height="10"/><rect width="10" y="250" x="240" height="10"/><rect width="10" y="230" x="240" height="10"/><rect width="10" y="190" x="240" height="10"/><rect width="10" y="180" x="240" height="10"/><rect width="10" y="130" x="240" height="10"/><rect width="10" y="120" x="240" height="10"/><rect width="10" y="110" x="240" height="10"/><rect width="10" y="90" x="240" height="10"/><rect width="10" y="80" x="240" height="10"/><rect width="10" y="70" x="240" height="10"/><rect width="10" y="60" x="240" height="10"/><rect width="10" y="30" x="240" height="10"/><rect width="10" y="350" x="250" height="10"/><rect width="10" y="330" x="250" height="10"/><rect width="10" y="320" x="250" height="10"/><rect width="10" y="310" x="250" height="10"/><rect width="10" y="300" x="250" height="10"/><rect width="10" y="290" x="250" height="10"/><rect width="10" y="280" x="250" height="10"/><rect width="10" y="250" x="250" height="10"/><rect width="10" y="240" x="250" height="10"/><rect width="10" y="210" x="250" height="10"/><rect width="10" y="170" x="250" height="10"/><rect width="10" y="160" x="250" height="10"/><rect width="10" y="150" x="250" height="10"/><rect width="10" y="120" x="250" height="10"/><rect width="10" y="110" x="250" height="10"/><rect width="10" y="80" x="250" height="10"/><rect width="10" y="50" x="250" height="10"/><rect width="10" y="40" x="250" height="10"/><rect width="10" y="30" x="250" height="10"/><rect width="10" y="20" x="250" height="10"/><rect width="10" y="0" x="250" height="10"/><rect width="10" y="330" x="260" height="10"/><rect width="10" y="320" x="260" height="10"/><rect width="10" y="310" x="260" height="10"/><rect width="10" y="290" x="260" height="10"/><rect width="10" y="280" x="260" height="10"/><rect width="10" y="250" x="260" height="10"/><rect width="10" y="240" x="260" height="10"/><rect width="10" y="230" x="260" height="10"/><rect width="10" y="190" x="260" height="10"/><rect width="10" y="170" x="260" height="10"/><rect width="10" y="150" x="260" height="10"/><rect width="10" y="140" x="260" height="10"/><rect width="10" y="120" x="260" height="10"/><rect width="10" y="110" x="260" height="10"/><rect width="10" y="70" x="260" height="10"/><rect width="10" y="60" x="260" height="10"/><rect width="10" y="20" x="260" height="10"/><rect width="10" y="340" x="270" height="10"/><rect width="10" y="330" x="270" height="10"/><rect width="10" y="320" x="270" height="10"/><rect width="10" y="310" x="270" height="10"/><rect width="10" y="300" x="270" height="10"/><rect width="10" y="260" x="270" height="10"/><rect width="10" y="230" x="270" height="10"/><rect width="10" y="220" x="270" height="10"/><rect width="10" y="200" x="270" height="10"/><rect width="10" y="180" x="270" height="10"/><rect width="10" y="170" x="270" height="10"/><rect width="10" y="150" x="270" height="10"/><rect width="10" y="140" x="270" height="10"/><rect width="10" y="100" x="270" height="10"/><rect width="10" y="80" x="270" height="10"/><rect width="10" y="70" x="270" height="10"/><rect width="10" y="50" x="270" height="10"/><rect width="10" y="40" x="270" height="10"/><rect width="10" y="30" x="270" height="10"/><rect width="10" y="20" x="270" height="10"/><rect width="10" y="360" x="280" height="10"/><rect width="10" y="350" x="280" height="10"/><rect width="10" y="340" x="280" height="10"/><rect width="10" y="320" x="280" height="10"/><rect width="10" y="310" x="280" height="10"/><rect width="10" y="300" x="280" height="10"/><rect width="10" y="290" x="280" height="10"/><rect width="10" y="280" x="280" height="10"/><rect width="10" y="270" x="280" height="10"/><rect width="10" y="240" x="280" height="10"/><rect width="10" y="180" x="280" height="10"/><rect width="10" y="90" x="280" height="10"/><rect width="10" y="60" x="280" height="10"/><rect width="10" y="30" x="280" height="10"/><rect width="10" y="20" x="280" height="10"/><rect width="10" y="10" x="280" height="10"/><rect width="10" y="0" x="280" height="10"/><rect width="10" y="330" x="290" height="10"/><rect width="10" y="320" x="290" height="10"/><rect width="10" y="280" x="290" height="10"/><rect width="10" y="270" x="290" height="10"/><rect width="10" y="260" x="290" height="10"/><rect width="10" y="250" x="290" height="10"/><rect width="10" y="230" x="290" height="10"/><rect width="10" y="190" x="290" height="10"/><rect width="10" y="180" x="290" height="10"/><rect width="10" y="140" x="290" height="10"/><rect width="10" y="130" x="290" height="10"/><rect width="10" y="120" x="290" height="10"/><rect width="10" y="90" x="290" height="10"/><rect width="10" y="80" x="290" height="10"/><rect width="10" y="340" x="300" height="10"/><rect width="10" y="330" x="300" height="10"/><rect width="10" y="320" x="300" height="10"/><rect width="10" y="300" x="300" height="10"/><rect width="10" y="280" x="300" height="10"/><rect width="10" y="260" x="300" height="10"/><rect width="10" y="250" x="300" height="10"/><rect width="10" y="230" x="300" height="10"/><rect width="10" y="210" x="300" height="10"/><rect width="10" y="190" x="300" height="10"/><rect width="10" y="180" x="300" height="10"/><rect width="10" y="170" x="300" height="10"/><rect width="10" y="160" x="300" height="10"/><rect width="10" y="140" x="300" height="10"/><rect width="10" y="130" x="300" height="10"/><rect width="10" y="80" x="300" height="10"/><rect width="10" y="60" x="300" height="10"/><rect width="10" y="50" x="300" height="10"/><rect width="10" y="40" x="300" height="10"/><rect width="10" y="30" x="300" height="10"/><rect width="10" y="20" x="300" height="10"/><rect width="10" y="10" x="300" height="10"/><rect width="10" y="0" x="300" height="10"/><rect width="10" y="360" x="310" height="10"/><rect width="10" y="340" x="310" height="10"/><rect width="10" y="320" x="310" height="10"/><rect width="10" y="280" x="310" height="10"/><rect width="10" y="240" x="310" height="10"/><rect width="10" y="210" x="310" height="10"/><rect width="10" y="200" x="310" height="10"/><rect width="10" y="180" x="310" height="10"/><rect width="10" y="170" x="310" height="10"/><rect width="10" y="140" x="310" height="10"/><rect width="10" y="130" x="310" height="10"/><rect width="10" y="110" x="310" height="10"/><rect width="10" y="100" x="310" height="10"/><rect width="10" y="90" x="310" height="10"/><rect width="10" y="80" x="310" height="10"/><rect width="10" y="60" x="310" height="10"/><rect width="10" y="0" x="310" height="10"/><rect width="10" y="350" x="320" height="10"/><rect width="10" y="340" x="320" height="10"/><rect width="10" y="330" x="320" height="10"/><rect width="10" y="320" x="320" height="10"/><rect width="10" y="310" x="320" height="10"/><rect width="10" y="300" x="320" height="10"/><rect width="10" y="290" x="320" height="10"/><rect width="10" y="280" x="320" height="10"/><rect width="10" y="240" x="320" height="10"/><rect width="10" y="230" x="320" height="10"/><rect width="10" y="180" x="320" height="10"/><rect width="10" y="130" x="320" height="10"/><rect width="10" y="120" x="320" height="10"/><rect width="10" y="100" x="320" height="10"/><rect width="10" y="80" x="320" height="10"/><rect width="10" y="60" x="320" height="10"/><rect width="10" y="40" x="320" height="10"/><rect width="10" y="30" x="320" height="10"/><rect width="10" y="20" x="320" height="10"/><rect width="10" y="0" x="320" height="10"/><rect width="10" y="300" x="330" height="10"/><rect width="10" y="270" x="330" height="10"/><rect width="10" y="260" x="330" height="10"/><rect width="10" y="250" x="330" height="10"/><rect width="10" y="220" x="330" height="10"/><rect width="10" y="180" x="330" height="10"/><rect width="10" y="170" x="330" height="10"/><rect width="10" y="160" x="330" height="10"/><rect width="10" y="150" x="330" height="10"/><rect width="10" y="120" x="330" height="10"/><rect width="10" y="110" x="330" height="10"/><rect width="10" y="100" x="330" height="10"/><rect width="10" y="60" x="330" height="10"/><rect width="10" y="40" x="330" height="10"/><rect width="10" y="30" x="330" height="10"/><rect width="10" y="20" x="330" height="10"/><rect width="10" y="0" x="330" height="10"/><rect width="10" y="350" x="340" height="10"/><rect width="10" y="330" x="340" height="10"/><rect width="10" y="310" x="340" height="10"/><rect width="10" y="300" x="340" height="10"/><rect width="10" y="280" x="340" height="10"/><rect width="10" y="270" x="340" height="10"/><rect width="10" y="260" x="340" height="10"/><rect width="10" y="200" x="340" height="10"/><rect width="10" y="170" x="340" height="10"/><rect width="10" y="150" x="340" height="10"/><rect width="10" y="140" x="340" height="10"/><rect width="10" y="90" x="340" height="10"/><rect width="10" y="60" x="340" height="10"/><rect width="10" y="40" x="340" height="10"/><rect width="10" y="30" x="340" height="10"/><rect width="10" y="20" x="340" height="10"/><rect width="10" y="0" x="340" height="10"/><rect width="10" y="350" x="350" height="10"/><rect width="10" y="340" x="350" height="10"/><rect width="10" y="310" x="350" height="10"/><rect width="10" y="300" x="350" height="10"/><rect width="10" y="290" x="350" height="10"/><rect width="10" y="270" x="350" height="10"/><rect width="10" y="260" x="350" height="10"/><rect width="10" y="240" x="350" height="10"/><rect width="10" y="160" x="350" height="10"/><rect width="10" y="140" x="350" height="10"/><rect width="10" y="130" x="350" height="10"/><rect width="10" y="110" x="350" height="10"/><rect width="10" y="100" x="350" height="10"/><rect width="10" y="90" x="350" height="10"/><rect width="10" y="60" x="350" height="10"/><rect width="10" y="0" x="350" height="10"/><rect width="10" y="360" x="360" height="10"/><rect width="10" y="350" x="360" height="10"/><rect width="10" y="340" x="360" height="10"/><rect width="10" y="320" x="360" height="10"/><rect width="10" y="290" x="360" height="10"/><rect width="10" y="260" x="360" height="10"/><rect width="10" y="240" x="360" height="10"/><rect width="10" y="230" x="360" height="10"/><rect width="10" y="210" x="360" height="10"/><rect width="10" y="200" x="360" height="10"/><rect width="10" y="190" x="360" height="10"/><rect width="10" y="180" x="360" height="10"/><rect width="10" y="140" x="360" height="10"/><rect width="10" y="120" x="360" height="10"/><rect width="10" y="90" x="360" height="10"/><rect width="10" y="60" x="360" height="10"/><rect width="10" y="50" x="360" height="10"/><rect width="10" y="40" x="360" height="10"/><rect width="10" y="30" x="360" height="10"/><rect width="10" y="20" x="360" height="10"/><rect width="10" y="10" x="360" height="10"/><rect width="10" y="0" x="360" height="10"/></g></svg>